<svg xmlns="http://www.w3.org/2000/svg" xmlns:xlink="http://www.w3.org/1999/xlink" width="40" height="40" viewBox="0 0 40 40">
    <defs>
        <rect id="a" width="6" height="5" x="1" rx=".5"/>
        <filter id="b" width="133.3%" height="140%" x="-16.7%" y="-20%" filterUnits="objectBoundingBox">
            <feOffset dx="-2" in="SourceAlpha" result="shadowOffsetInner1"/>
            <feComposite in="shadowOffsetInner1" in2="SourceAlpha" k2="-1" k3="1" operator="arithmetic" result="shadowInnerInner1"/>
            <feColorMatrix in="shadowInnerInner1" values="0 0 0 0 0 0 0 0 0 0 0 0 0 0 0 0 0 0 0.158712636 0"/>
        </filter>
        <rect id="c" width="7" height="3" x="7" y="2" rx=".5"/>
        <filter id="d" width="128.6%" height="166.7%" x="-14.3%" y="-33.3%" filterUnits="objectBoundingBox">
            <feOffset dx="-2" in="SourceAlpha" result="shadowOffsetInner1"/>
            <feComposite in="shadowOffsetInner1" in2="SourceAlpha" k2="-1" k3="1" operator="arithmetic" result="shadowInnerInner1"/>
            <feColorMatrix in="shadowInnerInner1" values="0 0 0 0 0 0 0 0 0 0 0 0 0 0 0 0 0 0 0.158712636 0"/>
        </filter>
        <path id="e" d="M35.866 18.133c.158-1-.006-1.086-.662-2.56-.179-.4-.65-.644-1.03-.853-1.991-1.095-6.962-1.774-7.285-1.781-1.012-1.016-2.669-2.928-4.892-4.456-.415-.286-1.878-.33-1.878-.33S8.117 7.69 5.256 8.376c-.247.059-.419.038-.626.148-.034.018-.628.638-.662.705-.033.066-.228.28-.294.371-.442.602-.983 1.196-1.362 1.855-.166.29-.243.565-.404.853-.156.278-.722.492-.81 1.002-.042.245-.318.153-.331.52.126.039.141.085.294.11-.22.812-.357 2.26-.368 2.412-.001.019-.002.018 0 0C0 16.572.065 17.826 0 17.598c.083.334.312.77.4 1.129.073.308-.173.439-.185.742.054.031.106.364.147.408.175.485 1.545.925 1.545.925h.135a3.496 3.496 0 0 1-.18-1.11c0-1.92 1.543-3.474 3.445-3.474 1.903 0 3.446 1.555 3.446 3.473 0 .392-.065.768-.183 1.12l18.022.022a3.49 3.49 0 0 1-.254-1.312c0-1.918 1.542-3.474 3.445-3.474 1.903 0 3.445 1.556 3.445 3.474 0 .467-.092.913-.257 1.32h.283s2.114.198 2.391-.482c.114-.128.156-.774.147-1.15.004-.387.082-.312.184-.557.1-.237-.147-.41-.11-.519zm-24.062-5.788c-.067.048-.063.073-.147.112-.268.205-2.884-.074-6.438-.074.06.087-.416.011-.037-.817.516-1.125 1.302-1.914 1.259-1.93 1.044-.158 3.843-.112 5.363-.073-.03.89-.018 1.373 0 2.782zm10.633.854c-.055-.079-.227-.18-.258-.26-.035-.093.058-.278 0-.408-.158-.359-.683-.6-1.214-.594-.126.148-.317.214-.404.408a4.689 4.689 0 0 0-.11.594c.017.08.063.095.074.136.095.004.049.014-.001.05a.097.097 0 0 0 .001-.05c-.265-.011-1.637.034-7.139-.247-.152-2.92-.289-3.016.037-3.488 3.22 0 6.623-.037 6.623-.037s2.421 2.98 3.164 3.933c-.132.063-.559-.028-.773-.037zm2.318-.297c-1.195-.967-2.772-3.051-3.532-3.673-.258 0 .603-.015 1.067-.111 1.385 1.232 2.818 2.346 4.076 3.796-.595.027-1.105.397-1.611-.012z"/>
    </defs>
    <g fill="none" fill-rule="evenodd">
        <path fill="#FFF" fill-rule="nonzero" stroke="#283641" stroke-width=".5" d="M2.15 29.016c-.033-.035-.038-.06-.097-.278 0-.003-.033-.094.035-.054l-.129-.076.006-.15a.926.926 0 0 1 .126-.42l.022-.044c.05-.101.059-.143.043-.209A3.414 3.414 0 0 0 2 27.331l-.031-.078c-.131-.327-.173-.439-.212-.594l.483-.129c.011-.001.011-.001-.117-.129-.356.08-.356.08-.34.138-.018.062.064-.421.141-.647.11-.324.28-.573.532-.71.053-.597.17-1.475.308-2.083l-.026-.013a.318.318 0 0 0-.045-.018l-.182-.057.006-.19a.579.579 0 0 1 .277-.513l.022-.015c.04-.027.035-.02.036-.026.053-.306.214-.522.502-.769-.052.045.215-.18.262-.225a.424.424 0 0 0 .073-.087c.06-.106.1-.193.183-.389l.001-.002c.097-.226.145-.33.222-.464.207-.36.431-.669.85-1.2.359-.453.29-.365.386-.491.05-.066.097-.128.14-.188.03-.039.045-.057.15-.182l.004-.005c.072-.086.117-.144.12-.148.052-.105.68-.767.768-.814.08-.043.162-.073.25-.094.06-.015.111-.024.203-.036.126-.018.165-.025.231-.04 1.13-.272 3.658-.386 7.187-.383a246.825 246.825 0 0 1 7.743.153 9.952 9.952 0 0 1 1.02.086c.457.064.793.151.991.288.633.435 1.25.92 1.866 1.46a30.994 30.994 0 0 1 1.766 1.685c.203.207.948.985 1.227 1.27 1.379.07 5.762.964 7.297 1.809.137.075.208.114.283.158.44.253.71.486.855.812.115.26.422.924.464 1.019.132.296.201.492.24.692.055.279.046.552-.023.99l-.01.041c.022-.066.034-.039.048-.014.104.192.138.353.056.55-.041.098 0 .03-.13.232-.025.038-.033.072-.035.222.013.558-.049 1.14-.165 1.25-.164.402-.66.58-1.392.643a7.61 7.61 0 0 1-1.232-.005H34.6l.14-.345c.157-.385.24-.799.24-1.225 0-1.78-1.432-3.224-3.196-3.224-1.764 0-3.195 1.443-3.195 3.224 0 .423.08.835.236 1.218l.14.344-18.742-.023.111-.33c.112-.331.17-.68.17-1.039 0-1.78-1.431-3.223-3.196-3.223-1.764 0-3.195 1.442-3.195 3.223 0 .356.057.703.167 1.032l.11.33-.347-.001-.212-.012a6.525 6.525 0 0 1-.815-.33c-.441-.216-.744-.435-.865-.694zm11.413-7.791l-.01.004.001.12.25-.004-.144-.204a.625.625 0 0 0-.097.084zM8.59 18.868c.024-.03.027-.034.052-.07.014-.023.014-.023.035-.068.045-.098.045-.098-.15-.329l-.085.235.037.247.111-.015zm4.958-.061l.25.006-.242-.259a35.8 35.8 0 0 0-.008.253zm-5.325-.282zm16.226 3.152a.514.514 0 0 0-.04-.247c-.108-.245-.334-.443-.618-.573l.658.82zm-2.233.145a.7.7 0 0 0-.008.173.437.437 0 0 0 .087.18l.039.142.182.008c.022.001.022.001-.005-.004-.155-.056-.155-.056-.13-.386a.441.441 0 0 1 .006-.006l.138.196.243.058a.343.343 0 0 0-.001-.176l-.05-.175-.18-.007a6.142 6.142 0 0 0-.321-.003zm.079.354a.662.662 0 0 0 .016.02.157.157 0 0 1-.026-.054l.01.034zm-6.67-.587l-.225-.01.237.236a56.74 56.74 0 0 0-.012-.226zm-.064-2.999c.018-.03.04-.065.069-.107l-.206.107h.137zm6.368-.035l.12-.002-.196-.092.076.094zm2.755 3.417l.33.418.197-.154-.11-.225s-.118-.002-.29-.023l-.065-.008a47.583 47.583 0 0 0-.062-.008zm-.13-.015a1.59 1.59 0 0 0-.105-.008l-.011.25.205-.143a.502.502 0 0 0-.09-.1zm-.747-3.521a5.253 5.253 0 0 0-.425-.4l-.158-.057h-.031l.037.005a.25.25 0 0 1 .036.01l.058.032.098.152c-.151.284-.151.284-.188.293l-.03.005.13-.007c.17-.01.323-.02.473-.033zm.41-.05l.125-.023-.217-.058.091.08zm3.66 3.352c.1.11.2.223.302.34l.177-.414a2.493 2.493 0 0 0-.48.074z"/>
        <g transform="translate(2 9)">
            <path stroke="#283641" stroke-width=".612" d="M5.307 16.69c-1.642 0-2.974 1.343-2.974 3.002 0 1.658 1.332 3.002 2.974 3.002 1.643 0 2.975-1.344 2.975-3.002 0-1.66-1.332-3.003-2.975-3.003zm0 5.67a2.66 2.66 0 0 1-2.65-2.668 2.66 2.66 0 0 1 2.65-2.67 2.66 2.66 0 0 1 2.65 2.67 2.66 2.66 0 0 1-2.65 2.669zm0-2.665c.004 0 .006-.002.006-.003s-.002-.003-.006-.003c-.003 0-.005.002-.005.003 0 0 .002.003.005.003zM4.65 18.11l-.282-.284-.217.216.178.248c.1-.071.208-.132.32-.18zm.015-.006A1.67 1.67 0 0 1 5.022 18l-.358-.301v.405zm0 .021v.614h.197l.018.038.039-.038h.052l-.014-.038.14-.14-.432-.436zm.643 2.429c.1 0 .18-.08.18-.178a.178.178 0 0 0-.18-.178.178.178 0 0 0 0 .355zm.447.088l-.018-.038-.039.038h-.052l.014.038-.14.14.432.436v-.614h-.197zm.212.629l.282.284.217-.215-.178-.25c-.1.072-.208.133-.32.181zm-.015.006a1.67 1.67 0 0 1-.358.104l.358.301v-.405zm.93-.94h.402l-.302-.357c-.02.123-.055.243-.1.357zm-.007.017a1.714 1.714 0 0 1-.181.328l.25.176.217-.215-.286-.29zm-.017-.017l-.426-.43-.14.138-.04-.014v.054l-.038.037.038.018v.197h.606zm-.691-.646a.178.178 0 0 0-.179-.178.178.178 0 0 0 0 .355c.1 0 .179-.08.179-.177zm-.859-.864a.178.178 0 0 0 0 .355c.1 0 .18-.08.18-.177a.178.178 0 0 0-.18-.178zm.644-.702l-.433.437.14.139-.013.038h.052l.039.038.018-.038h.197v-.614zm0-.021V17.7L5.594 18c.123.021.243.056.357.104zm.015.006c.113.048.22.109.321.18l.178-.248-.217-.216-.282.284zm-1.642 1.226l.04.014v-.054l.038-.037-.038-.018v-.197h-.606l.426.43.14-.138zm-.59-.292h-.402l.302.357c.02-.123.055-.243.1-.357zm.007-.017c.049-.115.11-.225.181-.328l-.25-.176-.217.215.286.29zm.623 1.113l.038-.018-.038-.037v-.054l-.04.014-.14-.138-.426.43h.606v-.197zm-.623.214l-.286.289.217.215.25-.176a1.715 1.715 0 0 1-.18-.328zm-.006-.017a1.713 1.713 0 0 1-.101-.357l-.302.357h.403zm.929.919l.433-.437-.14-.139.013-.038h-.052l-.039-.038-.018.038h-.197v.614zm0 .021v.405l.358-.301a1.67 1.67 0 0 1-.358-.104zm-.015-.006a1.688 1.688 0 0 1-.321-.18l-.178.249.217.215.282-.284zm-.2-1.58c0 .097.08.177.179.177.099 0 .178-.08.178-.177a.178.178 0 0 0-.178-.178c-.1 0-.179.08-.179.178zm1.802-.45l-.038.018.038.037v.054l.04-.014.14.138.426-.43h-.606v.197zm.622-.214l.287-.289-.217-.215-.25.176c.072.103.132.213.18.328zm.007.017c.046.114.08.234.101.357l.302-.357H6.88zM29.783 16.519c-1.642 0-2.975 1.344-2.975 3.002 0 1.66 1.333 3.003 2.975 3.003 1.643 0 2.975-1.344 2.975-3.003 0-1.658-1.332-3.002-2.975-3.002zm0 5.672a2.66 2.66 0 0 1-2.65-2.67 2.66 2.66 0 0 1 2.65-2.669 2.66 2.66 0 0 1 2.65 2.67 2.66 2.66 0 0 1-2.65 2.669zm.984-2.315l-.04-.014v.054l-.038.037.038.018v.197h.606l-.427-.43-.14.138zm-.04.04v.055l.239.112c.018-.038.034-.078.049-.119l-.248-.088-.04.04zm.629.252h.402l-.301-.357c-.021.123-.055.243-.101.357zm-.007.016a1.714 1.714 0 0 1-.18.329l.25.176.217-.216-.287-.289zm-.622-1.112l-.038.018.038.037v.054l.04-.014.14.138.426-.43h-.606v.197zm.622-.214l.287-.289-.218-.215-.25.176c.072.103.133.213.181.328zm.007.017c.046.114.08.234.1.357l.302-.357h-.402zm-2.232-.934l-.281-.284-.218.215.178.25c.1-.073.208-.133.321-.181zm.016-.007a1.67 1.67 0 0 1 .357-.103l-.357-.301v.404zm0 .022v.614h.197l.018.038.038-.038h.053l-.014-.038.14-.14-.432-.436zm-.215 1.565a.178.178 0 1 0 .357 0 .178.178 0 0 0-.179-.177c-.099 0-.178.08-.178.177zm.858-.863a.178.178 0 0 0 0 .355c.1 0 .179-.08.179-.177a.178.178 0 0 0-.179-.178zm.644-.702l-.433.436.14.14-.013.038h.052l.038.038.019-.038h.197v-.614zm0-.022v-.405l-.358.302c.124.021.243.056.358.103zm.015.007c.113.048.22.108.321.18l.178-.249-.217-.215-.282.284zm.2 1.58a.178.178 0 0 0-.179-.177c-.1 0-.179.08-.179.177 0 .098.08.178.179.178.1 0 .179-.08.179-.178zm-1.842-.354l.04.014v-.054l.037-.038-.037-.017v-.197h-.606l.426.43.14-.138zm-.59-.292h-.402l.302.357c.02-.123.054-.243.1-.357zm.007-.017c.048-.115.109-.226.181-.328l-.25-.176-.217.215.286.29zm.923 2.228l.432-.436-.14-.14.014-.037h-.053l-.038-.038-.018.038h-.197v.613zm0 .022v.405l.357-.301a1.67 1.67 0 0 1-.357-.104zm-.016-.006a1.69 1.69 0 0 1-.32-.18l-.179.248.218.216.281-.284zm-.284-1.131l.037-.018-.037-.037v-.054l-.04.014-.14-.138-.426.43h.606v-.197zm-.623.213l-.286.29.217.215.25-.176a1.715 1.715 0 0 1-.18-.329zm-.007-.016a1.714 1.714 0 0 1-.1-.357l-.302.357h.402zm1.573-.644c.004 0 .006-.002.006-.003 0 0-.002-.003-.006-.003-.003 0-.005.002-.005.003s.002.003.005.003zm.447.949l-.019-.038-.038.038h-.052l.013.038-.14.139.433.436v-.613h-.197zm-.057 0l-.039.038.09.25c.04-.015.08-.032.12-.05l-.114-.238h-.057zm.269.629l.282.284.217-.216-.178-.249a1.69 1.69 0 0 1-.321.18zm-.015.006a1.67 1.67 0 0 1-.358.103l.358.302v-.405zm-.644-.724c.1 0 .179-.08.179-.177a.178.178 0 0 0-.179-.178.178.178 0 0 0 0 .355z"/>
            <g transform="translate(5)">
                <path fill="#283641" d="M0 5h16v1H0zM1 6h2v2H1zM13 6h2v2h-2z"/>
                <use fill="#CA8A65" xlink:href="#a"/>
                <use fill="#000" filter="url(#b)" xlink:href="#a"/>
                <rect width="5.75" height="4.75" x="1.125" y=".125" stroke="#283641" stroke-linejoin="square" stroke-width=".25" rx=".5"/>
                <g>
                    <use fill="#01D388" xlink:href="#c"/>
                    <use fill="#000" filter="url(#d)" xlink:href="#c"/>
                    <rect width="6.75" height="2.75" x="7.125" y="2.125" stroke="#283641" stroke-linejoin="square" stroke-width=".25" rx=".5"/>
                </g>
                <rect width="1.75" height="4.75" x="7.125" y=".125" fill="#FF7B6E" stroke="#283641" stroke-width=".25" rx=".5"/>
            </g>
            <mask id="f" fill="#fff">
                <use xlink:href="#e"/>
            </mask>
            <use fill="#FFF" fill-rule="nonzero" xlink:href="#e"/>
            <path fill="#E91D26" d="M36.5 19.5c-1.314-1.863-2.814-3.03-4.5-3.5-6.54-1.825-15.8-1.708-21-1.5-7.212.288-11.212 2.455-12 6.5l.5-13 5-1.5H28l6 5.5 3 3.5-.5 4z" mask="url(#f)"/>
        </g>
    </g>
</svg>
