<svg xmlns="http://www.w3.org/2000/svg" xmlns:xlink="http://www.w3.org/1999/xlink" width="40" height="40" viewBox="0 0 40 40">
    <defs>
        <filter id="a" width="116.2%" height="692%" x="-8.1%" y="-296%" filterUnits="objectBoundingBox">
            <feGaussianBlur in="SourceGraphic" stdDeviation="0.925 0"/>
        </filter>
        <path id="b" d="M35.368 6.268l.176.177c.07.07.163.235.28.495.117.259.176.53.176.812 0 .472-.094.884-.28 1.238-.188.353-.352.6-.492.742l-.281.141-2.739.566h-.07v-.071c0-.895-.328-1.661-.983-2.297-.656-.637-1.428-.955-2.318-.955a3.1 3.1 0 0 0-2.282.955 3.142 3.142 0 0 0-.948 2.297v.566l-16.15.353c.046-.188.093-.4.14-.636v-.283c0-.895-.316-1.661-.948-2.297-.632-.637-1.416-.955-2.353-.955-.561 0-1.1.153-1.615.46a3.255 3.255 0 0 0-1.193 1.201 3.17 3.17 0 0 0-.422 1.591v.424c0 .047.024.118.07.212-1.263-.141-2.13-.33-2.598-.565a5.07 5.07 0 0 1-.421-1.273C.023 8.695 0 8.39.047 8.247c.14-.565.328-1.13.562-1.696.14-.377 1.299-.86 3.476-1.45 2.176-.589 3.546-.883 4.107-.883.515-.189 1.16-.46 1.932-.813.772-.353 1.474-.683 2.106-.99a36.436 36.436 0 0 1 1.79-.813c.563-.235.937-.4 1.124-.494C18.281.024 22.12 0 26.661 1.037c.468.141 1.45.495 2.949 1.06 1.498.566 2.317.872 2.458.92.468.188 1.38.376 2.738.565.375.047.562.259.562.636v2.05z"/>
        <filter id="c" width="116.7%" height="154.6%" x="-8.3%" y="-27.2%" filterUnits="objectBoundingBox">
            <feOffset dx="-1" dy="5" in="SourceAlpha" result="shadowOffsetInner1"/>
            <feComposite in="shadowOffsetInner1" in2="SourceAlpha" k2="-1" k3="1" operator="arithmetic" result="shadowInnerInner1"/>
            <feColorMatrix in="shadowInnerInner1" values="0 0 0 0 0.91372549 0 0 0 0 0.11372549 0 0 0 0 0.149019608 0 0 0 1 0"/>
        </filter>
        <path id="e" d="M22.36 4.36l.843-3.252c-.374.047-.854.094-1.44.14-.585.048-1.521.26-2.808.637-1.288.377-2.306.896-3.055 1.555a.34.34 0 0 1 .176.071c.07.047.14.165.21.353.07.189.082.401.035.637l6.04-.142z"/>
        <filter id="f" width="113.7%" height="129.5%" x="-6.8%" y="-14.7%" filterUnits="objectBoundingBox">
            <feOffset dy="-1" in="SourceAlpha" result="shadowOffsetInner1"/>
            <feComposite in="shadowOffsetInner1" in2="SourceAlpha" k2="-1" k3="1" operator="arithmetic" result="shadowInnerInner1"/>
            <feColorMatrix in="shadowInnerInner1" values="0 0 0 0 0 0 0 0 0 0 0 0 0 0 0 0 0 0 0.1 0"/>
        </filter>
        <path id="g" d="M15.127 4.077l.281-.99-.843-1.343a3.449 3.449 0 0 0-.491-.177c-.234-.07-.737-.165-1.51-.283a16.058 16.058 0 0 0-2.422-.176l-.492 3.11 5.477-.141z"/>
        <filter id="h" width="117.4%" height="132.2%" x="-8.7%" y="-16.1%" filterUnits="objectBoundingBox">
            <feOffset dy="-1" in="SourceAlpha" result="shadowOffsetInner1"/>
            <feComposite in="shadowOffsetInner1" in2="SourceAlpha" k2="-1" k3="1" operator="arithmetic" result="shadowInnerInner1"/>
            <feColorMatrix in="shadowInnerInner1" values="0 0 0 0 0 0 0 0 0 0 0 0 0 0 0 0 0 0 0.1 0"/>
        </filter>
        <path id="i" d="M9.874 4.077c.093-.425-.047-.73-.421-.92a18.488 18.488 0 0 0-2.599-1.201l1.475 2.12h1.545z"/>
        <filter id="j" width="132.8%" height="147.2%" x="-16.4%" y="-23.6%" filterUnits="objectBoundingBox">
            <feOffset dy="-1" in="SourceAlpha" result="shadowOffsetInner1"/>
            <feComposite in="shadowOffsetInner1" in2="SourceAlpha" k2="-1" k3="1" operator="arithmetic" result="shadowInnerInner1"/>
            <feColorMatrix in="shadowInnerInner1" values="0 0 0 0 0 0 0 0 0 0 0 0 0 0 0 0 0 0 0.1 0"/>
        </filter>
    </defs>
    <g fill="none" fill-rule="evenodd">
        <path fill="#FFF" d="M1 11h39v19H1z" opacity=".01"/>
        <g transform="translate(2 13)">
            <ellipse cx="18.038" cy="14.156" fill="#000" fill-opacity=".3" filter="url(#a)" rx="17.113" ry="1"/>
            <mask id="d" fill="#fff">
                <use xlink:href="#b"/>
            </mask>
            <g transform="matrix(-1 0 0 1 36.023 0)">
                <use fill="#FFF" xlink:href="#b"/>
                <use fill="#000" filter="url(#c)" xlink:href="#b"/>
                <path stroke="#283641" stroke-width=".5" d="M35.618 6.165l.103.103c.098.1.202.283.331.569.132.291.198.597.198.915 0 .511-.103.963-.31 1.355-.198.373-.374.638-.6.848l-.343.163-2.789.57h-.32v-.32c0-.827-.3-1.529-.907-2.118-.61-.591-1.32-.884-2.144-.884-.822 0-1.52.292-2.104.88a2.893 2.893 0 0 0-.876 2.122v.81l-16.722.366.079-.317c.046-.185.092-.393.133-.576v-.283c0-.83-.29-1.532-.875-2.121s-1.305-.88-2.176-.88c-.515 0-1.01.14-1.487.424A3.005 3.005 0 0 0 3.705 8.9a2.92 2.92 0 0 0-.389 1.467v.424c0-.001.013.039.044.101l.204.41-.455-.05c-1.292-.145-2.181-.338-2.683-.591l-.112-.112a5.318 5.318 0 0 1-.442-1.335C-.23 8.7-.256 8.366-.196 8.187a12.19 12.19 0 0 1 .57-1.724C.56 5.967 1.726 5.481 4.02 4.86c2.202-.596 3.58-.892 4.088-.877a27.528 27.528 0 0 0 1.913-.805c.77-.353 1.47-.682 2.101-.988a36.684 36.684 0 0 1 1.803-.818 24.13 24.13 0 0 0 1.139-.5c3.185-1.102 7.07-1.125 11.67-.075.475.144 1.462.499 2.965 1.066 1.49.563 2.313.87 2.463.921.443.179 1.342.364 2.676.55.5.062.781.38.781.884v1.947z"/>
            </g>
            <path fill="#FFF" stroke="#283641" stroke-width=".5" d="M-1.24.36s3.66 3.295 2.685 5.243C.47 7.55-2.331 5.856-2.222 5.41c.11-.446.981-5.05.981-5.05zM34.856 5.812s-2.111 2.488.622 2.319c2.733-.17 3.016-.686 3.016-.686L36.12 4.967l-1.263.845z" mask="url(#d)"/>
            <path fill="#283641" d="M34.225 8.906H44.4v.938H34.225z" mask="url(#d)"/>
            <path stroke="#283641" stroke-linecap="round" stroke-linejoin="round" stroke-width=".5" d="M6.3 6.23s3.078-.924 5.012 2.359l14.265.677s-.1-2.806 3.497-3.208" mask="url(#d)"/>
            <g transform="matrix(-1 0 0 1 39.103 0)">
                <use fill="#FFF" xlink:href="#e"/>
                <use fill="#000" filter="url(#f)" xlink:href="#e"/>
                <path stroke="#283641" stroke-linejoin="square" stroke-width=".5" d="M22.166 4.114l.704-2.716c-.31.033-.672.067-1.086.1-.564.045-1.487.254-2.76.627-1.106.324-2.004.753-2.694 1.285.071.089.132.21.19.367.055.147.081.303.08.467l5.566-.13z"/>
            </g>
            <g transform="matrix(-1 0 0 1 25.058 0)">
                <use fill="#FFF" xlink:href="#g"/>
                <use fill="#000" filter="url(#h)" xlink:href="#g"/>
                <path stroke="#283641" stroke-linejoin="square" stroke-width=".5" d="M14.937 3.831l.2-.705-.743-1.186a4.397 4.397 0 0 0-.392-.134c-.22-.066-.715-.159-1.475-.275a15.65 15.65 0 0 0-2.172-.172L9.944 3.96l4.993-.129z"/>
            </g>
            <g transform="matrix(-1 0 0 1 16.756 0)">
                <use fill="#FFF" xlink:href="#i"/>
                <use fill="#000" filter="url(#j)" xlink:href="#i"/>
                <path stroke="#283641" stroke-linejoin="square" stroke-width=".5" d="M9.652 3.827c-.003-.203-.105-.342-.321-.451a18.383 18.383 0 0 0-1.798-.881l.927 1.332h1.192z"/>
            </g>
            <path stroke="#283641" stroke-width=".925" d="M29.732 8.202c-.572 0-1.052.194-1.464.592a1.903 1.903 0 0 0-.606 1.437l-.002.217a2.065 2.065 0 0 0 2.072 1.878 1.94 1.94 0 0 0 1.32-.51c.39-.34.617-.772.685-1.257v-.328c0-.578-.19-1.051-.58-1.444-.389-.393-.855-.585-1.425-.585zm.268 1.91l-.254-.256 1.21-1.22.323.409c.222.279.363.592.419.933l.089.538H30v-.404zm1.242-.459l-.064-.062h-.588l-.036.028c.124.156.2.322.23.504l.458-.462v-.008zm-.78.14v.128l.134.132h.329c0-.2-.06-.382-.199-.522l-.264.261zm-.462.66v-.404h1.787l-.09.538c-.055.341-.196.654-.418.933l-.324.41-1.209-1.221.254-.256zm1.242.459v-.008l-.458-.462c-.03.182-.106.348-.23.504l.036.028h.588l.064-.062zm-.646-.4l-.134.132v.129l.264.261a.718.718 0 0 0 .199-.522h-.329zm-.781.128l.258-.26 1.208 1.22-.398.32c-.297.24-.638.366-1.005.366h-.463V10.64h.4zm0-.714h-.4V8.129l.54.091c.339.057.65.2.928.424l.398.322-1.208 1.22-.258-.26zm.192-.463h.132l.262-.26a.713.713 0 0 0-.523-.202v.335l.129.127zm.333-.147v-.561l-.076-.076-.452.455c.176.032.337.107.49.23l.038-.048zm-.854.61l-.257.26-1.209-1.22.398-.322c.278-.224.59-.367.929-.424l.539-.09v1.796h-.4zm-.525-1.171v.56l.039.049c.152-.123.313-.198.489-.23l-.451-.455-.077.076zm.201.708h.133l.128-.127V9c-.2 0-.383.061-.523.202l.262.26zm.324 1.177h.4v1.646h-.463c-.367 0-.707-.125-1.005-.365l-.398-.322 1.209-1.22.257.26zm-.185-.187l.254.256-1.263 1.274-.305-.514a2.514 2.514 0 0 1-.319-.882l-.088-.538H29.3v.404zm-.532.521a1.595 1.595 0 0 1-.188-.537l-.07.011-.386.39v.136h.644zm.07-.201v-.129l-.134-.132h-.329c0 .2.06.382.2.522l.263-.261zm-.07-1.182h-.644v.136l.386.39.07.011c.033-.197.095-.375.188-.537zm-.064.462l.134-.132v-.129l-.264-.261a.718.718 0 0 0-.199.522h.33zm.596.06v.403H27.58l.088-.538c.053-.319.16-.614.319-.882l.305-.514 1.263 1.274-.254.256zM7.232 8.202c-.572 0-1.052.194-1.464.592a1.903 1.903 0 0 0-.606 1.437l-.004.198a2.2 2.2 0 0 0 .242.732c.13.245.288.46.473.646.17.173.365.3.585.386.226.088.484.133.774.133.536 0 .976-.166 1.344-.502a2.07 2.07 0 0 0 .661-1.265v-.328c0-.578-.19-1.051-.58-1.444-.389-.393-.855-.585-1.425-.585zm.014 1.654l1.21-1.22.323.409c.222.279.363.592.419.933l.089.538H7.74l-.127-.258a.478.478 0 0 0-.044-.076l-.323-.326zm1.496-.203l-.064-.062H8.09l-.036.028c.124.156.2.322.23.504l.458-.462v-.008zm-.715.075v.257l.046.045.369-.182a1.197 1.197 0 0 0-.216-.317l-.199.197zm-.287.321h1.547l-.09.538c-.055.341-.196.654-.418.933l-.324.41-1.209-1.221.323-.326a.478.478 0 0 0 .044-.076l.127-.258zm1.002.863v-.008l-.458-.462c-.03.182-.106.348-.23.504l.036.028h.588l.064-.062zm-.669-.377l-.046.045v.257l.199.197c.083-.084.152-.189.216-.317l-.369-.182zm-.695 1.75h-.463V10.64h.463a.118.118 0 0 0 .051-.016l.322-.163 1.004 1.159-.372.3c-.297.24-.638.366-1.005.366zm0-2.36h-.463V8.13l.54.091c.339.057.65.2.928.424l.372.301-1.004 1.159-.322-.163a.118.118 0 0 0-.051-.015zm.184-.462h.109l.175-.347A1.033 1.033 0 0 0 7.378 9v.302l.184.16zm.278-.147v-.53L7.743 8.7l-.384.443c.158.036.304.108.443.22l.038-.048zM6.847 8.22l.539-.09v1.796h-.463c.048 0 .04.002.014.015l-.3.152L5.52 8.966l.398-.322c.278-.224.59-.367.929-.424zm-.386.535v.56l.039.049c.152-.123.313-.198.489-.23l-.451-.455-.077.076zm.234.708h.1l.128-.127V9a.876.876 0 0 0-.403.115l.175.347zm.69 1.177v1.646h-.462c-.367 0-.707-.125-1.005-.365l-.398-.322 1.117-1.127.3.152c.027.013.034.016-.014.016h.463zm-.584-.187l.254.256-1.263 1.274-.305-.514a2.514 2.514 0 0 1-.319-.882l-.088-.538H6.8v.404zm-.532.521a1.595 1.595 0 0 1-.188-.537l-.07.011-.386.39v.136h.644zm.07-.201v-.129l-.134-.132h-.329c0 .2.06.382.2.522l.263-.261zm-.07-1.182h-.644v.136l.386.39.07.011c.033-.197.095-.375.188-.537zm-.064.462l.134-.132v-.129l-.264-.261a.718.718 0 0 0-.199.522h.33zm.596.06v.403H5.08l.088-.538c.053-.319.16-.614.319-.882l.305-.514 1.263 1.274-.254.256z"/>
        </g>
    </g>
</svg>
